<?xml version="1.0" encoding="utf-8"?>
<!-- Generator: Adobe Illustrator 23.0.1, SVG Export Plug-In . SVG Version: 6.00 Build 0)  -->
<svg version="1.1" id="Layer_1" xmlns="http://www.w3.org/2000/svg" xmlns:xlink="http://www.w3.org/1999/xlink" x="0px" y="0px"
	 viewBox="0 0 123 27" style="enable-background:new 0 0 123 27;" xml:space="preserve">
<style type="text/css">
	.st0{fill:#174777;}
	.st1{fill-rule:evenodd;clip-rule:evenodd;fill:#164778;}
	.st2{fill:#164778;}
</style>
<g id="Group_1" transform="translate(44.994 -12.595)">
	<path id="Path_1" class="st0" d="M-43,30.2c0-6.5,4.1-11.9,10.8-11.9c4.6,0,7.5,2.5,7.5,7.2c0,1.4-0.3,2.8-0.7,4.2h-11.3v0.4
		c0,2.7,1.1,3.7,3.5,3.7c1.6,0,3.1-0.4,4.5-1.2h2.1l-0.9,4c-2.1,1.1-4.3,1.6-6.7,1.5C-39.8,38.1-43,35.4-43,30.2z M-36.1,26.2h5.7
		c0.1-0.4,0.2-0.8,0.1-1.3c0-1.8-0.8-2.6-2.2-2.6C-34.3,22.4-35.5,23.9-36.1,26.2z"/>
	<path id="Path_2" class="st0" d="M-21.9,24.7h9l-1.2,5h-9L-21.9,24.7z"/>
	<path id="Path_3" class="st0" d="M-13.3,36.3l0.9-4h2.3c1.1,1.1,2.6,1.6,4.1,1.5c1.4,0,2.6-0.4,2.6-1.5c0-0.8-0.7-1.1-2.6-1.8
		c-3.2-1-5-2.3-5-5.4c0-4.4,3.4-6.8,8.4-6.8c2.3-0.1,4.7,0.5,6.7,1.7l-0.9,3.8H1c-1-0.9-2.4-1.4-3.8-1.3c-1.6,0-2.3,0.6-2.3,1.5
		c0,0.7,0.6,1.1,2.6,1.7c3.1,0.9,5.2,2.1,5.2,5.3c0,4.5-3.4,7-8.7,7C-8.6,38.2-11.1,37.6-13.3,36.3z"/>
	<path id="Path_4" class="st0" d="M6.2,31.7l2.1-8.8h-2l0.9-4.2h2l1.1-4.9h6.6l-1.1,4.9H19l-0.9,4.2h-3.3l-2,8.7
		c-0.4,1.6,0.1,2.4,1.9,2.4h0.9l-0.8,3.8c-1.1,0.3-2.2,0.5-3.4,0.5C7.3,38.2,5.2,36.2,6.2,31.7z"/>
	<path id="Path_5" class="st0" d="M28.5,35.9c-1.3,1.4-3.1,2.2-5.1,2.2c-3,0-5.2-1.8-5.2-5c0-4.5,3.5-6.7,8.5-6.7
		c1.1,0,2.2,0.1,3.2,0.4l0.1-0.4c0.6-2.3-0.1-3.4-2.4-3.4c-1.5,0-3,0.3-4.4,1h-2.1l1.1-4.4c2.2-0.9,4.6-1.3,6.9-1.2
		c5.8,0,8.7,2.5,7.4,8.2L34,37.8h-2.6C30.1,37.9,28.9,37.1,28.5,35.9z M28.5,33.3l0.8-3.4c-0.6-0.2-1.2-0.3-1.9-0.3
		c-1.5-0.2-2.8,0.8-3,2.3c0,0.2,0,0.3,0,0.5c-0.1,0.9,0.5,1.7,1.4,1.8c0.1,0,0.2,0,0.4,0C27.1,34.3,27.9,33.9,28.5,33.3z"/>
	<path id="Path_6" class="st0" d="M39.8,20.1v-1.5h6.3l1.2,11.9h0.1l5.9-11.9h5.5v1.5l-9.9,17.7h-6.5L39.8,20.1z"/>
	<path id="Path_7" class="st0" d="M57.9,30.2c0-6.5,4.1-11.9,10.8-11.9c4.6,0,7.5,2.5,7.5,7.2c0,1.4-0.3,2.8-0.7,4.2H64.3v0.4
		c0,2.7,1.1,3.7,3.5,3.7c1.6,0,3.1-0.4,4.5-1.2h2.1l-0.9,4c-2.1,1.1-4.3,1.6-6.6,1.5C61.1,38.1,57.9,35.4,57.9,30.2z M64.8,26.2h5.7
		c0.1-0.4,0.2-0.8,0.1-1.3c0-1.8-0.8-2.6-2.2-2.6C66.6,22.4,65.4,23.9,64.8,26.2L64.8,26.2z"/>
</g>
</svg>
